# xmcd
#
# Track frame offsets:
#	150
#	4068
#	30302
#	30987
#	51573
#	54112
#	82169
#	83093
#	102317
#	103924
#	116422
#	121680
#	144566
#	145931
#	165550
#	166113
#	186162
#	187822
#	210150
#	210598
#	236912
#	252138
#	254299
#	271534
#	272990
#	298458
#	300697
#	335428
#
# Disc length: 4790 seconds
#
# Revision: 0
# Processed by: cddbd v1.5.2PL0 Copyright (c) Steve Scherf et al.
# Submitted via: audiograbber 1.83.01
#
DISCID=8312b41c
DTITLE=Bob Dorr and the Blue Band - Happy Blue Year
DYEAR=2008
DGENRE=Blues
TTITLE0=Pinkstuff Introduction
TTITLE1=Good Legs
TTITLE2=Talk
TTITLE3=Madness On Main Street
TTITLE4=Talk
TTITLE5=Dont Sting, Bite, Or Bug Me
TTITLE6=Talk
TTITLE7=I Dig Your Wig
TTITLE8=Talk
TTITLE9=Tear Drops From My Eyes
TTITLE10=Talk
TTITLE11=This Old Fool
TTITLE12=Talk
TTITLE13=The Mess Around
TTITLE14=Talk
TTITLE15=He's Back In Town
TTITLE16=Talk
TTITLE17=Honey Hush
TTITLE18=Talk
TTITLE19=Room With A View
TTITLE20=Merry Christmas Baby
TTITLE21=Talk
TTITLE22=Million Dollar Secret
TTITLE23=Talk
TTITLE24=Runnin' Wild
TTITLE25=Talk
TTITLE26=New Orleans
TTITLE27=Dance, Dance, Dance
EXTD=
EXTT0=
EXTT1=
EXTT2=
EXTT3=
EXTT4=
EXTT5=
EXTT6=
EXTT7=
EXTT8=
EXTT9=
EXTT10=
EXTT11=
EXTT12=
EXTT13=
EXTT14=
EXTT15=
EXTT16=
EXTT17=
EXTT18=
EXTT19=
EXTT20=
EXTT21=
EXTT22=
EXTT23=
EXTT24=
EXTT25=
EXTT26=
EXTT27=
PLAYORDER=
